#!OML:ASF E:\Steps\Project 1\Capture day 1\Session 2\Subject.ASF
:FULLY-SPECIFIED
:DEGREES
117
root 6.85754 16.2124 31.4127 -154.54 3.15101 178.009
lowerback -25.5124 -1.81201 -5.31219
upperback -0.272153 -0.434389 -0.221086
thorax 14.1127 -0.415757 2.67994
lowerneck -3.72371 -2.18162 -2.04012
upperneck 18.5757 -2.28173 3.01906
head 6.2978 -0.614442 1.19692
rclavicle 6.60959e-015 -4.77083e-015
rhumerus -41.5166 -19.4497 -73.9508
rradius 33.1405
rwrist -2.40883
rhand -9.59398 -48.3532
rfingers 7.12502
rthumb 16.3746 -77.682
lclavicle 6.60959e-015 -4.77083e-015
lhumerus -32.6004 5.8481 78.9334
lradius 29.2443
lwrist -2.27087
lhand -18.1303 -13.3655
lfingers 7.12502
lthumb 8.14453 16.4576
rfemur -26.3301 6.38178 21.3413
rtibia 12.3051
rfoot -22.9904 -6.10796
rtoes -10.7875
lfemur -38.6709 -9.56086 -18.6191
ltibia 37.6138
lfoot -14.0272 3.92918
ltoes -32.8703
118
root 6.87262 16.2051 31.4064 -154.682 3.01665 178.004
lowerback -25.3759 -1.74742 -5.29996
upperback -0.190158 -0.366683 -0.252125
thorax 14.1272 -0.389865 2.66081
lowerneck -3.63988 -2.23913 -1.94701
upperneck 18.5704 -2.36135 3.01138
head 6.28238 -0.64472 1.17448
rclavicle -8.39865e-015 1.98785e-016
rhumerus -41.5204 -19.9003 -73.7833
rradius 33.0487
rwrist -2.04695
rhand -9.39522 -48.2715
rfingers 7.12502
rthumb 16.566 -77.5844
lclavicle -8.39865e-015 1.98785e-016
lhumerus -32.478 5.39077 79.1378
lradius 29.3277
lwrist -2.43562
lhand -17.2563 -14.1204
lfingers 7.12502
lthumb 8.98799 15.6681
rfemur -26.0305 6.57453 21.4151
rtibia 12.1901
rfoot -23.0252 -6.36583
rtoes -10.3963
lfemur -39.5129 -9.52825 -18.6262
ltibia 39.3667
lfoot -13.6216 4.16378
ltoes -35.2747
119
root 6.89294 16.2024 31.3955 -154.954 3.04482 178.03
lowerback -25.082 -1.6569 -5.37972
upperback -0.112023 -0.256023 -0.257136
thorax 14.0459 -0.351502 2.73986
lowerneck -3.60359 -2.33528 -1.82469
upperneck 18.5926 -2.48474 2.91989
head 6.28371 -0.700682 1.11738
rclavicle -1.2424e-014 -9.54166e-015
rhumerus -41.4754 -20.42 -73.5534
rradius 32.8468
rwrist -1.55479
rhand -9.2574 -48.6865
rfingers 7.12502
rthumb 16.6986 -77.9883
lclavicle -1.2424e-014 -9.54166e-015
lhumerus -32.4512 4.99836 79.303
lradius 29.3983
lwrist -2.27966
lhand -18.3479 -14.3987
lfingers 7.12502
lthumb 7.93457 15.4323
rfemur -25.5927 7.38364 21.4172
rtibia 12.1358
rfoot -23.0923 -7.04023
rtoes -10.4561
lfemur -39.9763 -9.36812 -18.6571
ltibia 40.6153
lfoot -12.9434 4.66728
ltoes -38.4648
120
root 6.8965 16.1935 31.3829 -154.979 3.18396 177.825
lowerback -25.0017 -1.60492 -5.49368
upperback -0.14748 -0.143743 -0.340934
thorax 13.9497 -0.299586 2.7503
lowerneck -3.48898 -2.38452 -1.6317
upperneck 18.6145 -2.51948 2.67414
head 6.26607 -0.719151 1.006
rclavicle -1.92324e-014 -6.75868e-015
rhumerus -41.5233 -20.4 -73.5563
rradius 32.9104
rwrist -1.36807
rhand -9.45924 -48.8596
rfingers 7.12502
rthumb 16.5043 -78.1777
lclavicle -1.92324e-014 -6.75868e-015
lhumerus -32.4968 4.79509 79.5091
lradius 29.375
lwrist -1.60195
lhand -18.4667 -14.4987
lfingers 7.12502
lthumb 7.8199 15.3366
rfemur -25.4761 7.77999 21.1367
rtibia 12.1986
rfoot -23.1225 -7.31548
rtoes -11.207
lfemur -40.9415 -9.285 -19.0577
ltibia 42.4246
lfoot -12.5086 4.76102
ltoes -38.3602
121
root 6.90571 16.192 31.3767 -155.121 3.21951 177.597
lowerback -24.7588 -1.5932 -5.69848
upperback -0.113487 -0.084643 -0.386462
thorax 13.8498 -0.285663 2.83577
lowerneck -3.44028 -2.3915 -1.61328
upperneck 18.6765 -2.50576 2.59156
head 6.27579 -0.712728 0.978567
rclavicle -8.89561e-015 -1.27222e-014
rhumerus -41.4786 -20.0379 -73.7474
rradius 33.0877
rwrist -1.53523
rhand -9.73032 -48.6336
rfingers 7.12502
rthumb 16.2433 -77.9731
lclavicle -8.89561e-015 -1.27222e-014
lhumerus -32.4289 4.68854 79.7922
lradius 29.3899
lwrist -0.763291
lhand -18.6769 -14.9302
lfingers 7.12502
lthumb 7.61702 14.9127
rfemur -25.3707 8.20824 20.8425
rtibia 12.413
rfoot -23.3159 -7.81132
rtoes -11.4331
lfemur -41.7303 -9.27797 -19.371
ltibia 43.8777
lfoot -12.3446 5.07754
ltoes -39.3832
122
root 6.91669 16.19 31.367 -155.148 3.1879 177.662
lowerback -24.7105 -1.55875 -5.62118
upperback -0.0899032 -0.0836374 -0.300644
thorax 13.8496 -0.287391 2.88963
lowerneck -3.33836 -2.3523 -2.01535
upperneck 18.7559 -2.44873 2.90277
head 6.29115 -0.682284 1.15036
rclavicle -1.59028e-015 -2.03754e-014
rhumerus -41.3589 -19.8594 -73.6892
rradius 33.0041
rwrist -1.43611
rhand -9.77269 -48.4641
rfingers 7.12502
rthumb 16.2025 -77.807
lclavicle -1.59028e-015 -2.03754e-014
lhumerus -32.3686 4.94926 79.9184
lradius 29.5683
lwrist -0.897045
lhand -18.0707 -15.0814
lfingers 7.12502
lthumb 8.20211 14.7394
rfemur -25.4248 8.30104 20.9766
rtibia 12.7016
rfoot -23.4912 -7.97436
rtoes -12.0298
lfemur -42.6075 -9.24682 -19.2767
ltibia 45.1731
lfoot -12.3575 5.17572
ltoes -39.5848
123
root 6.92507 16.1863 31.3466 -155.202 3.18651 177.84
lowerback -24.7728 -1.48418 -5.41686
upperback -0.0312335 -0.0596532 -0.216446
thorax 13.95 -0.274193 2.87704
lowerneck -3.40055 -2.34105 -2.24855
upperneck 18.9822 -2.4267 3.12251
head 6.3791 -0.659544 1.26255
rclavicle 1.49089e-016 -3.08116e-015
rhumerus -41.2274 -20.0252 -73.5049
rradius 32.7571
rwrist -0.968495
rhand -9.76985 -48.4951
rfingers 7.12502
rthumb 16.2053 -77.8378
lclavicle 1.49089e-016 -3.08116e-015
lhumerus -32.3336 5.01564 79.9951
lradius 29.6847
lwrist -1.27879
lhand -17.7345 -13.6398
lfingers 7.12502
lthumb 8.52655 16.168
rfemur -25.3028 7.33801 21.4549
rtibia 12.7374
rfoot -23.3122 -6.9728
rtoes -12.163
lfemur -43.3543 -9.17478 -19.0999
ltibia 46.336
lfoot -12.4892 5.13445
ltoes -40.2139
